<mxfile host="app.diagrams.net" modified="2023-10-21T11:31:49.869Z" agent="Mozilla/5.0 (Windows NT 10.0; Win64; x64) AppleWebKit/537.36 (KHTML, like Gecko) Chrome/118.0.0.0 Safari/537.36" etag="4DwWLamTw0I1RABdg0eI" version="22.0.6" type="device">
  <diagram name="Page-1" id="w_0y-bLotW-MhMW8ZYvz">
    <mxGraphModel dx="691" dy="370" grid="1" gridSize="10" guides="1" tooltips="1" connect="1" arrows="1" fold="1" page="1" pageScale="1" pageWidth="850" pageHeight="1100" math="0" shadow="0">
      <root>
        <mxCell id="0" />
        <mxCell id="1" parent="0" />
        <mxCell id="2RJA6Hhx04FrcO7JKhzG-1" value="Entity-Relationship-Modell" style="shape=umlFrame;whiteSpace=wrap;html=1;pointerEvents=0;width=170;height=20;flipV=0;flipH=0;" vertex="1" parent="1">
          <mxGeometry x="150" y="130" width="580" height="790" as="geometry" />
        </mxCell>
      </root>
    </mxGraphModel>
  </diagram>
</mxfile>
